<?xml version="1.0" encoding="UTF-8" standalone="no"?>
<!-- Created with Inkscape (http://www.inkscape.org/) -->

<svg
   xmlns:dc="http://purl.org/dc/elements/1.1/"
   xmlns:cc="http://creativecommons.org/ns#"
   xmlns:rdf="http://www.w3.org/1999/02/22-rdf-syntax-ns#"
   xmlns:svg="http://www.w3.org/2000/svg"
   xmlns="http://www.w3.org/2000/svg"
   version="1.1"
   width="100"
   height="85.000504"
   id="svg2">
  <defs
     id="defs4">
    <clipPath
       id="clipPath3035">
      <path
         d="m 76.666,85.331 c -3.274,2.93 -7.113,5.238 -11.334,6.732 -1.821,0.643 -3.715,1.135 -5.664,1.462 -1.844,0.311 -3.737,0.473 -5.669,0.473 l 0,0.002 C 50.021,93.998 46.21,93.314 42.667,92.063 38.444,90.569 34.604,88.267 31.333,85.34 24.375,79.107 20,70.074 20,60 20,49.926 24.375,40.894 31.333,34.66 c 3.271,-2.927 7.111,-5.228 11.334,-6.722 1.72,-0.608 3.503,-1.083 5.338,-1.409 -0.13,0.071 -0.254,0.151 -0.382,0.222 -0.45,0.249 -0.895,0.504 -1.333,0.77 -0.21,0.128 -0.416,0.261 -0.623,0.393 -0.387,0.246 -0.769,0.497 -1.145,0.756 -0.207,0.143 -0.413,0.285 -0.617,0.432 -0.388,0.277 -0.768,0.564 -1.145,0.857 -0.172,0.133 -0.346,0.262 -0.515,0.398 -0.538,0.431 -1.066,0.873 -1.579,1.332 -1.043,0.935 -2.044,1.924 -2.987,2.979 -6.015,6.717 -9.68,15.606 -9.68,25.332 0.002,9.62 5.233,18.021 12.999,22.512 3.821,2.212 8.268,3.488 13.001,3.487 2.241,0 4.421,-0.284 6.5,-0.819 l 0,0 c 2.312,-0.596 4.492,-1.503 6.503,-2.666 C 74.768,78.023 79.998,69.62 80,60 79.998,50.806 75.218,42.723 68.015,38.104 c 0.202,0.019 0.404,0.037 0.604,0.062 0.152,0.018 0.303,0.031 0.453,0.053 0.413,0.058 0.824,0.127 1.229,0.207 l 0.096,0.017 c 0.435,0.088 0.863,0.192 1.289,0.306 0.14,0.038 0.279,0.081 0.418,0.122 0.287,0.082 0.571,0.168 0.851,0.263 0.158,0.053 0.315,0.108 0.472,0.165 0.262,0.095 0.524,0.194 0.782,0.299 0.153,0.061 0.307,0.123 0.457,0.188 0.272,0.116 0.538,0.239 0.803,0.366 0.129,0.062 0.259,0.12 0.386,0.184 0.387,0.195 0.77,0.397 1.143,0.613 l 3,1.74 L 80,36 l 0,-2.819 0,-7.179 8,0 0,7.169 0,2.829 0,24 c -0.002,8.714 -3.274,16.646 -8.662,22.667 -0.832,0.931 -1.729,1.818 -2.672,2.664"
         id="path3037" />
    </clipPath>
    <clipPath
       id="clipPath3027">
      <path
         d="m 88.666,85.34 c -3.27,2.927 -7.113,5.229 -11.334,6.723 -1.721,0.607 -3.504,1.082 -5.34,1.408 0.121,-0.065 0.237,-0.14 0.359,-0.207 0.46,-0.254 0.915,-0.515 1.362,-0.788 0.207,-0.126 0.41,-0.257 0.614,-0.387 0.389,-0.247 0.773,-0.5 1.152,-0.76 0.206,-0.142 0.412,-0.284 0.615,-0.43 0.386,-0.277 0.766,-0.564 1.142,-0.856 0.174,-0.134 0.35,-0.265 0.521,-0.402 0.536,-0.431 1.064,-0.873 1.577,-1.332 1.043,-0.933 2.043,-1.922 2.986,-2.976 C 88.336,78.616 92,69.726 91.998,60 l 0,-24 0.002,-2.829 0,-7.169 8,0 L 100,60 C 99.998,70.074 95.625,79.107 88.666,85.34"
         id="path3029" />
    </clipPath>
    <clipPath
       id="clipPath3019">
      <path
         d="m 51.382,81.835 c -0.151,-0.018 -0.304,-0.032 -0.455,-0.054 l 0,0 C 50.502,81.722 50.08,81.652 49.662,81.568 l 0,0 c -0.019,-0.004 -0.038,-0.006 -0.057,-0.01 l 0,0 C 49.168,81.469 48.737,81.365 48.31,81.25 l 0,0 c -0.135,-0.036 -0.268,-0.078 -0.402,-0.117 l 0,0 C 47.615,81.049 47.324,80.96 47.037,80.864 l 0,0 c -0.153,-0.051 -0.304,-0.105 -0.455,-0.159 l 0,0 c -0.27,-0.097 -0.537,-0.2 -0.803,-0.306 l 0,0 c -0.146,-0.06 -0.294,-0.12 -0.439,-0.182 l 0,0 c -0.278,-0.12 -0.551,-0.246 -0.822,-0.376 l 0,0 c -0.123,-0.06 -0.249,-0.115 -0.37,-0.177 l 0,0 c -0.389,-0.195 -0.772,-0.398 -1.147,-0.615 l 0,0 C 36.422,75.239 31.998,68.144 32,60 l 0,0 c 0,-8.714 3.273,-16.645 8.66,-22.666 l 0,0 c 0.835,-0.934 1.731,-1.82 2.673,-2.664 l 0,0 c 3.275,-2.931 7.111,-5.238 11.334,-6.732 l 0,0 c 1.821,-0.643 3.715,-1.138 5.664,-1.465 l 0,0 C 62.176,26.164 64.067,26.002 65.999,26 l 0,0 c 3.485,0.002 6.841,0.527 10.001,1.498 l 0,0 0,5.682 0,2.82 C 72.92,34.715 69.539,34 65.999,34.002 l 0,0 c -2.241,0 -4.42,0.284 -6.499,0.818 l 0,0 c -2.31,0.596 -4.493,1.502 -6.502,2.666 l 0,0 C 45.232,41.977 40,50.381 40,60 l 0,0 c 0,9.196 4.78,17.279 11.986,21.896 l 0,0 c -0.203,-0.018 -0.404,-0.037 -0.604,-0.061"
         id="path3021" />
    </clipPath>
    <clipPath
       id="clipPath2999">
      <path
         d="M 0,120 120,120 120,0 0,0 0,120 z"
         id="path3001" />
    </clipPath>
  </defs>
  <metadata
     id="metadata7">
    <rdf:RDF>
      <cc:Work
         rdf:about="">
        <dc:format>image/svg+xml</dc:format>
        <dc:type
           rdf:resource="http://purl.org/dc/dcmitype/StillImage" />
        <dc:title></dc:title>
      </cc:Work>
    </rdf:RDF>
  </metadata>
  <g
     transform="translate(-298.57143,-201.29051)"
     id="layer1">
    <g
       transform="matrix(1.25,0,0,-1.25,273.57143,318.79063)"
       id="g2993">
      <g
         id="g2995">
        <g
           clip-path="url(#clipPath2999)"
           id="g2997">
          <g
             transform="translate(76,33.1807)"
             id="g3003">
            <path
               d="m 0,0 0,2.819 c -3.08,-1.285 -6.461,-2 -10.001,-1.998 -2.241,0 -4.42,0.283 -6.499,0.819 -2.31,0.595 -4.493,1.502 -6.502,2.666 C -30.768,8.796 -36,17.2 -36,26.819 c 0,9.196 4.781,17.279 11.985,21.896 -0.201,-0.018 -0.403,-0.037 -0.603,-0.061 -0.152,-0.017 -0.304,-0.032 -0.455,-0.053 -0.426,-0.06 -0.847,-0.13 -1.265,-0.214 -0.019,-0.003 -0.038,-0.006 -0.057,-0.01 -0.437,-0.088 -0.868,-0.193 -1.295,-0.308 -0.135,-0.036 -0.268,-0.078 -0.402,-0.117 -0.293,-0.084 -0.584,-0.172 -0.871,-0.268 -0.153,-0.052 -0.304,-0.106 -0.455,-0.16 -0.27,-0.097 -0.537,-0.199 -0.802,-0.306 -0.147,-0.06 -0.295,-0.119 -0.44,-0.182 -0.278,-0.119 -0.55,-0.245 -0.821,-0.376 -0.124,-0.059 -0.249,-0.115 -0.372,-0.177 -0.388,-0.194 -0.771,-0.398 -1.146,-0.615 C -39.578,42.059 -44.002,34.964 -44,26.819 c 0,-8.715 3.272,-16.645 8.66,-22.666 0.835,-0.933 1.731,-1.82 2.673,-2.664 3.275,-2.93 7.111,-5.238 11.334,-6.732 1.822,-0.643 3.715,-1.138 5.664,-1.464 1.845,-0.31 3.736,-0.472 5.668,-0.474 3.485,0.002 6.841,0.527 10.001,1.498 L 0,0 z"
               id="path3005"
               style="fill:#ffffff;fill-opacity:1;fill-rule:nonzero;stroke:none" />
          </g>
          <g
             transform="translate(88.666,85.3403)"
             id="g3007">
            <path
               d="m 0,0 c -3.271,2.927 -7.113,5.229 -11.334,6.722 -1.721,0.608 -3.504,1.082 -5.34,1.409 0.121,-0.066 0.237,-0.14 0.359,-0.207 0.46,-0.255 0.915,-0.516 1.362,-0.788 0.207,-0.126 0.41,-0.257 0.614,-0.387 0.389,-0.247 0.773,-0.5 1.151,-0.761 0.207,-0.141 0.413,-0.283 0.616,-0.429 0.386,-0.278 0.766,-0.564 1.142,-0.856 0.174,-0.134 0.35,-0.265 0.521,-0.402 0.536,-0.431 1.064,-0.873 1.577,-1.332 1.043,-0.933 2.043,-1.922 2.986,-2.977 6.016,-6.716 9.68,-15.606 9.678,-25.332 l 0,-24 0.002,-2.829 0,-7.169 8,0 0,33.998 C 11.332,-15.267 6.959,-6.233 0,0"
               id="path3009"
               style="fill:#ffffff;fill-opacity:1;fill-rule:nonzero;stroke:none" />
          </g>
          <g
             transform="translate(76.666,85.3311)"
             id="g3011">
            <path
               d="m 0,0 c -3.274,2.93 -7.113,5.238 -11.334,6.731 -1.821,0.644 -3.715,1.136 -5.664,1.463 -1.844,0.311 -3.737,0.473 -5.669,0.473 l 0,0.002 c -3.978,-0.002 -7.789,-0.686 -11.332,-1.938 -4.223,-1.493 -8.063,-3.795 -11.334,-6.722 -6.958,-6.233 -11.333,-15.266 -11.333,-25.34 0,-10.074 4.375,-19.107 11.333,-25.34 3.271,-2.927 7.111,-5.228 11.334,-6.723 1.72,-0.607 3.503,-1.082 5.338,-1.408 -0.13,0.071 -0.254,0.151 -0.382,0.222 -0.45,0.249 -0.895,0.504 -1.333,0.77 -0.21,0.128 -0.416,0.261 -0.624,0.393 -0.386,0.246 -0.768,0.497 -1.144,0.756 -0.207,0.142 -0.413,0.285 -0.617,0.432 -0.388,0.277 -0.768,0.564 -1.145,0.857 -0.172,0.133 -0.346,0.262 -0.515,0.398 -0.538,0.431 -1.066,0.873 -1.579,1.332 -1.043,0.935 -2.044,1.924 -2.987,2.979 -6.015,6.717 -9.68,15.606 -9.68,25.332 0.002,9.62 5.233,18.021 12.999,22.512 3.821,2.212 8.268,3.488 13.001,3.486 2.241,0 4.421,-0.283 6.5,-0.818 l 0,0 c 2.312,-0.596 4.492,-1.503 6.503,-2.666 7.766,-4.491 12.996,-12.894 12.998,-22.514 -0.002,-9.194 -4.782,-17.277 -11.985,-21.897 0.202,0.02 0.404,0.038 0.604,0.063 0.151,0.018 0.303,0.031 0.453,0.053 0.413,0.058 0.823,0.127 1.229,0.207 l 0.096,0.017 c 0.435,0.088 0.863,0.192 1.289,0.306 0.14,0.038 0.279,0.081 0.417,0.122 0.288,0.082 0.572,0.168 0.852,0.263 0.158,0.052 0.315,0.108 0.472,0.165 0.262,0.094 0.524,0.194 0.782,0.299 0.153,0.061 0.307,0.123 0.457,0.188 0.271,0.116 0.538,0.239 0.803,0.366 0.129,0.062 0.259,0.12 0.386,0.184 0.387,0.195 0.77,0.397 1.143,0.613 l 3,1.74 0.002,-6.689 0,-2.819 0,-7.179 8,0 0,7.169 0,2.829 0,24 C 11.332,-16.617 8.06,-8.686 2.672,-2.664 1.84,-1.733 0.943,-0.846 0,0"
               id="path3013"
               style="fill:#ffffff;fill-opacity:1;fill-rule:nonzero;stroke:none" />
          </g>
        </g>
      </g>
      <g
         id="g3015">
        <g
           clip-path="url(#clipPath3019)"
           id="g3017">
          <g
             id="g3023">
            <g
               clip-path="url(#clipPath3027)"
               id="g3025">
              <g
                 id="g3031">
                <g
                   clip-path="url(#clipPath3035)"
                   id="g3033">
                  <g
                     transform="translate(26.0498,120)"
                     id="g3039">
                    <path
                       d="m 0,0 67.9,0 c 14.327,0 26.05,-11.724 26.05,-26.051 l 0,-67.899 C 93.95,-108.277 82.227,-120 67.9,-120 L 0,-120 c -14.326,0 -26.05,11.723 -26.05,26.05 l 0,67.899 C -26.05,-11.724 -14.326,0 0,0"
                       id="path3041"
                       style="fill:#ffffff;fill-opacity:1;fill-rule:evenodd;stroke:none" />
                  </g>
                </g>
              </g>
            </g>
          </g>
        </g>
      </g>
    </g>
  </g>
</svg>
