<?xml version="1.0" encoding="utf-8"?>
<!-- Generator: Adobe Illustrator 16.0.4, SVG Export Plug-In . SVG Version: 6.00 Build 0)  -->
<!DOCTYPE svg PUBLIC "-//W3C//DTD SVG 1.1//EN" "http://www.w3.org/Graphics/SVG/1.1/DTD/svg11.dtd">
<svg version="1.1" id="Layer_1" xmlns="http://www.w3.org/2000/svg" xmlns:xlink="http://www.w3.org/1999/xlink" x="0px" y="0px"
	 width="24px" height="24px" viewBox="0 0 24 24" enable-background="new 0 0 24 24" xml:space="preserve">
<path d="M12,7c-2.76,0-5,2.24-5,5s2.24,5,5,5s5-2.24,5-5S14.76,7,12,7z M12,15c-1.66,0-3-1.34-3-3s1.34-3,3-3s3,1.34,3,3
	S13.66,15,12,15z M12,4.5C7,4.5,2.73,7.61,1,12c1.73,4.391,6,7.5,11,7.5s9.27-3.109,11-7.5C21.27,7.61,17,4.5,12,4.5z M12.012,17.75
	c-4.125,0-7.512-2.375-9.075-5.762c1.531-3.238,4.834-5.717,8.959-5.717s7.572,2.322,9.19,5.717
	C19.781,15.062,16.137,17.75,12.012,17.75z"/>
</svg>
